<svg xmlns="http://www.w3.org/2000/svg" width="40" height="41" viewBox="0 0 40 41">
  <g id="Group_281" data-name="Group 281" transform="translate(-21.323 -24)">
    <g id="ar-icon" transform="translate(21.323 24)" fill="#fff" stroke="#4ad991" stroke-width="1">
      <ellipse cx="20" cy="20.5" rx="20" ry="20.5" stroke="none"/>
      <ellipse cx="20" cy="20.5" rx="19.5" ry="20" fill="none"/>
    </g>
    <g id="Group_267" data-name="Group 267" transform="translate(30.819 33.418)">
      <path id="Path_468" data-name="Path 468" d="M-505.131-78.651v.5a5.227,5.227,0,0,1-.432.938q-1.444,2-2.937,3.968a4.41,4.41,0,0,1-3.655,1.821c-.357,0-.714,0-1.072,0h-8.259c-.1,0-.19-.014-.251.119a1.852,1.852,0,0,1-1.8,1.141c-.8.006-1.6,0-2.4,0a.645.645,0,0,1-.722-.728q0-4.34,0-8.679a.645.645,0,0,1,.725-.724q1.208,0,2.417,0a2.226,2.226,0,0,1,.314.02,1.921,1.921,0,0,1,1.279.767l.862-.578c-.127-.155-.251-.3-.364-.447s-.222-.306-.322-.467a6.854,6.854,0,0,1-.918-5.2,6.721,6.721,0,0,1,1.356-2.856,6.732,6.732,0,0,1,3.5-2.35c.488-.137,1-.194,1.5-.288h.841a1.746,1.746,0,0,0,.183.034,6.606,6.606,0,0,1,2.2.568,6.941,6.941,0,0,1,3.255,2.954,6.733,6.733,0,0,1,.768,4.823,6.832,6.832,0,0,1-2.658,4.147,1.2,1.2,0,0,0-.093.081,4.927,4.927,0,0,1,.932.489,5.154,5.154,0,0,1,.676.83c.089-.095.2-.217.318-.339.549-.579,1.071-1.187,1.654-1.73a1.838,1.838,0,0,1,2.764.376A5.083,5.083,0,0,1-505.131-78.651Zm-16.438-6.035a5.684,5.684,0,0,0,1.722,4.045.4.4,0,0,0,.368.13,4.248,4.248,0,0,1,2.27.372,5.6,5.6,0,0,1,1.3.878.736.736,0,0,0,.438.2,5.006,5.006,0,0,0,1.014-.155,5.68,5.68,0,0,0,4.171-6.581,5.72,5.72,0,0,0-6.69-4.517A5.727,5.727,0,0,0-521.568-84.686Zm0,12h9.358c.084,0,.168,0,.252,0a3,3,0,0,0,2.287-1.119c.751-.95,1.458-1.935,2.182-2.906.323-.432.645-.865.963-1.3a.6.6,0,0,0,.062-.672.6.6,0,0,0-.541-.339.72.72,0,0,0-.561.28c-.866.936-1.739,1.865-2.6,2.8a1.951,1.951,0,0,1-1.455.691c-1.654.009-3.307.007-4.961,0a.622.622,0,0,1-.631-.625.632.632,0,0,1,.627-.632c.063,0,.126,0,.189,0,1.415,0,2.831,0,4.246,0a.655.655,0,0,0,.665-.383.63.63,0,0,0-.634-.879c-1.2,0-2.4.006-3.594-.009a1.055,1.055,0,0,1-.542-.171c-.3-.2-.557-.446-.84-.663a3.1,3.1,0,0,0-2.593-.6,3.513,3.513,0,0,0-1.688.929.517.517,0,0,0-.19.429c.006,1.64,0,3.279,0,4.919Zm-3.818,1.261c.642,0,1.264,0,1.886,0a.627.627,0,0,0,.67-.672q0-3.13,0-6.259a.631.631,0,0,0-.688-.676c-.581,0-1.162,0-1.743,0-.04,0-.079.008-.125.013Z" transform="translate(526.657 91.684)" fill="#4ad991"/>
      <path id="Path_469" data-name="Path 469" d="M-356.23-34.122a.626.626,0,0,1-.63-.606c-.012-.238.07-.516-.029-.7-.09-.171-.372-.235-.56-.361a2.217,2.217,0,0,1-.355-.294.613.613,0,0,1-.028-.839.624.624,0,0,1,.851-.1,3.73,3.73,0,0,0,.47.311.593.593,0,0,0,.7-.1.617.617,0,0,0,.165-.673.611.611,0,0,0-.576-.416,1.9,1.9,0,0,1-1.687-1.031,1.871,1.871,0,0,1,.846-2.552.289.289,0,0,0,.2-.329,3.951,3.951,0,0,1,0-.525.628.628,0,0,1,.627-.609.628.628,0,0,1,.628.608c.01.2-.008.407.009.609a.271.271,0,0,0,.126.2,2.791,2.791,0,0,1,.984.736.622.622,0,0,1-.019.9.628.628,0,0,1-.888-.03,3.605,3.605,0,0,0-.5-.406.6.6,0,0,0-.727.048.623.623,0,0,0-.212.66.615.615,0,0,0,.588.457,1.9,1.9,0,0,1,1.688,1.03,1.856,1.856,0,0,1-.769,2.51.406.406,0,0,0-.278.474,2.083,2.083,0,0,1,0,.441A.629.629,0,0,1-356.23-34.122Z" transform="translate(366.996 45.514)" fill="#4ad991"/>
    </g>
  </g>
</svg>
