<svg xmlns="http://www.w3.org/2000/svg" width="41" height="41" viewBox="0 0 41 41">
  <g id="charge-entries" transform="translate(0.218 0.401)">
    <g id="Icon.BG" transform="translate(-0.218 -0.401)" fill="#fff" stroke="#56d9fe" stroke-width="1">
      <circle cx="20.5" cy="20.5" r="20.5" stroke="none"/>
      <circle cx="20.5" cy="20.5" r="20" fill="none"/>
    </g>
    <path id="medical-hospital-bill" d="M5.506,1.263H6.8a1.733,1.733,0,0,1,3.463-.02l1.527.02a.185.185,0,0,1,.185.185V3.29a.185.185,0,0,1-.185.185H5.507a.185.185,0,0,1-.185-.185V1.454a.185.185,0,0,1,.185-.185Zm6.354,19.6a.688.688,0,0,1,.106.36c0,.663-1.028,1.2-2.294,1.2s-2.3-.534-2.3-1.2a.708.708,0,0,1,.1-.36,2.627,2.627,0,0,0,2.19.843,2.62,2.62,0,0,0,2.189-.843Zm6.593-.569a.852.852,0,0,1,.13.441c0,.814-1.26,1.482-2.811,1.482s-2.811-.662-2.811-1.482a.86.86,0,0,1,.128-.441,3.212,3.212,0,0,0,2.683,1.034A3.206,3.206,0,0,0,18.453,20.294Zm-1.668-3.706-.033.371-1.381-.12a1.26,1.26,0,0,1,.237.5l-.332-.03a1.112,1.112,0,0,0-.15-.324.669.669,0,0,0-.3-.269l.026-.3,1.92.167Zm-1.016-.573c1.275,0,2.309.406,2.309.906s-1.041.893-2.316.893-2.311-.408-2.311-.906S14.486,16,15.763,16Zm0-.3c1.551,0,2.811.662,2.811,1.482s-1.26,1.482-2.811,1.482-2.811-.662-2.811-1.482S14.217,15.713,15.77,15.713Zm2.691,2.858a.836.836,0,0,1,.12.423c0,.814-1.26,1.482-2.811,1.482s-2.811-.66-2.811-1.482a.828.828,0,0,1,.119-.423,3.182,3.182,0,0,0,2.693,1.051A3.178,3.178,0,0,0,18.461,18.571Zm-7.968-.741-.026.3-1.127-.1a1.021,1.021,0,0,1,.185.4l-.259-.02a.851.851,0,0,0-.122-.265.556.556,0,0,0-.233-.209l.02-.243,1.566.137Zm-.828-.469c1.041,0,1.885.332,1.885.741s-.843.741-1.885.741-1.881-.332-1.881-.739.843-.741,1.885-.741Zm0-.245c1.266,0,2.294.539,2.294,1.2s-1.028,1.2-2.294,1.2-2.294-.539-2.294-1.2,1.027-1.2,2.294-1.2Zm2.2,2.335a.706.706,0,0,1,.1.345c0,.663-1.028,1.2-2.294,1.2s-2.294-.539-2.294-1.2a.682.682,0,0,1,.1-.345,2.6,2.6,0,0,0,2.2.858,2.621,2.621,0,0,0,2.2-.858ZM8.178,4.913h.945a.321.321,0,0,1,.328.321v1.2h1.2a.322.322,0,0,1,.321.321v.943a.322.322,0,0,1-.321.321h-1.2V9.183a.321.321,0,0,1-.319.321H8.187a.321.321,0,0,1-.319-.321V8.014h-1.2a.322.322,0,0,1-.321-.321V6.75a.322.322,0,0,1,.321-.321h1.2v-1.2a.319.319,0,0,1,.319-.321ZM1.151,1.96H3.912V3.411H2.3a.984.984,0,0,0-.973.973V19.1a.98.98,0,0,0,.973.973H6.18a1.933,1.933,0,0,0,.124.445,1.557,1.557,0,0,0-.063.185h0a1.8,1.8,0,0,0-.056.806H1.151A1.156,1.156,0,0,1,0,20.361V3.11A1.153,1.153,0,0,1,1.151,1.96ZM15.976,14.505V4.383A.98.98,0,0,0,15,3.411H13.391V1.96H16.15A1.156,1.156,0,0,1,17.3,3.11V14.694a6.047,6.047,0,0,0-1.331-.185Zm-12.6-3.1H14.269v.8H3.373v-.8Zm.159,4.972H7.54l-.056.028a2.739,2.739,0,0,0-.94.773H3.532v-.8ZM3.375,13.97H14.269v.715c-.1.026-.2.054-.3.085H3.373v-.8ZM7.822,2.054a1.282,1.282,0,0,0,.465.4.858.858,0,0,0,.454,0,1.26,1.26,0,0,0,.547-.58,1.062,1.062,0,0,0,.019-.185.778.778,0,1,0-1.553,0,.888.888,0,0,0,.072.36Z" transform="translate(11.131 8.698)" fill="#56d9fe" fill-rule="evenodd"/>
  </g>
</svg>
