<svg xmlns="http://www.w3.org/2000/svg" width="24" height="24" viewBox="0 0 24 24">
  <g id="on-hold" transform="translate(-11 -11)">
    <path id="Path_633" data-name="Path 633" d="M32.659,16.863h-.627V13.557A2.559,2.559,0,0,0,29.475,11H16.525a2.559,2.559,0,0,0-2.557,2.557v3.306h-.627A2.341,2.341,0,0,0,11,19.2V32.659A2.341,2.341,0,0,0,13.341,35H32.659A2.341,2.341,0,0,0,35,32.659V19.2A2.341,2.341,0,0,0,32.659,16.863ZM15.967,13.557A.556.556,0,0,1,16.52,13H29.475a.556.556,0,0,1,.553.553v3.306H15.967V13.557Zm-2.625,5.3H32.659A.344.344,0,0,1,33,19.2v4.168H13V19.2A.347.347,0,0,1,13.341,18.861Zm11.192,6.514v1.043H21.472V25.376ZM32.659,33H13.341A.344.344,0,0,1,13,32.659V25.376h6.47v2.042a1,1,0,0,0,1,1h5.064a1,1,0,0,0,1-1V25.376H33v7.283A.347.347,0,0,1,32.659,33Z" transform="translate(0)" fill="#68a5cd"/>
  </g>
</svg>
