<svg xmlns="http://www.w3.org/2000/svg" width="76.602" height="82.508" viewBox="0 0 76.602 82.508">
  <g id="over-due" transform="translate(-1486.48 -210.691)">
    <g id="Group_308" data-name="Group 308" transform="translate(3346.334 -26.488)">
      <path id="Subtraction_5" data-name="Subtraction 5" d="M2798.4-5999.745c-.156,0-.3,0-.439-.006a13.892,13.892,0,0,1-9.349-4.12,13.332,13.332,0,0,1-3.933-9.763,13.252,13.252,0,0,1,3.751-9.529,14.076,14.076,0,0,1,9.815-4.347l.25,0a13.978,13.978,0,0,1,10.2,4.51,13.8,13.8,0,0,1,3.628,10.549,13.989,13.989,0,0,1-4.1,8.723,13.631,13.631,0,0,1-4.293,2.888A14.074,14.074,0,0,1,2798.4-5999.745Zm.1-26.331h0l-.224,0a12.618,12.618,0,0,0-8.8,3.9,11.883,11.883,0,0,0-3.364,8.544,12.391,12.391,0,0,0,11.907,12.445c.121,0,.253.006.393.006a12.49,12.49,0,0,0,12.479-11.393,12.37,12.37,0,0,0-3.251-9.458,12.53,12.53,0,0,0-9.141-4.042Z" transform="translate(-4596.115 6265.191)" fill="#fff" stroke="rgba(0,0,0,0)" stroke-miterlimit="10" stroke-width="1"/>
      <path id="Path_488" data-name="Path 488" d="M-1724.542,302.432c0,1.174,0,2.348,0,3.521,0,.893-.182,1.07-1.058,1.07-1.713,0-3.425-.014-5.138.008-.544.007-.755-.184-.745-.736.029-1.747-.184-1.575,1.572-1.576.847,0,1.695-.028,2.54.011.454.021.535-.142.531-.555-.021-1.886,0-3.772-.017-5.657-.006-.545.185-.791.738-.739.191.018.385,0,.577,0,.8,0,.995.19,1,1.013C-1724.536,300.007-1724.542,301.219-1724.542,302.432Z" transform="translate(-70.716 -53.145)" fill="#fff"/>
    </g>
    <g id="Group_309" data-name="Group 309" transform="translate(6373.004 -6056)">
      <g id="Group_305" data-name="Group 305" transform="translate(246 0)">
        <path id="Path_435" data-name="Path 435" d="M263.96,413.17h24.214v5.236H263.96Z" transform="translate(-5374.853 5917.047)" fill="#fff"/>
        <path id="Path_436" data-name="Path 436" d="M263.96,306.63h24.214v5.236H263.96Z" transform="translate(-5374.853 6006.57)" fill="#fff"/>
        <path id="Path_437" data-name="Path 437" d="M263.96,359.91h24.214v5.236H263.96Z" transform="translate(-5374.853 5961.8)" fill="#fff"/>
        <path id="Path_439" data-name="Path 439" d="M263.96,200.1h24.214v5.236H263.96Z" transform="translate(-5374.853 6096.085)" fill="#fff"/>
        <path id="Path_440" data-name="Path 440" d="M263.96,253.37h24.214v5.236H263.96Z" transform="translate(-5374.853 6051.324)" fill="#fff"/>
        <path id="Path_441" data-name="Path 441" d="M210.69,359.91h5.236v5.236H210.69Z" transform="translate(-5330.091 5961.8)" fill="#fff"/>
        <path id="Path_443" data-name="Path 443" d="M210.69,200.1h5.236v5.236H210.69Z" transform="translate(-5330.091 6096.085)" fill="#fff"/>
        <path id="Subtraction_2" data-name="Subtraction 2" d="M58.9,81.2H0V11.823H23.027a6.959,6.959,0,0,1,.514-2.679,6.116,6.116,0,0,1,1.4-2.065,6.848,6.848,0,0,1,9.255,0,6.117,6.117,0,0,1,1.4,2.065,6.957,6.957,0,0,1,.514,2.679h8.361a15.055,15.055,0,0,0-.454,3.677,15.211,15.211,0,0,0,.119,1.9H2.8V78.889H56.142V30.223a15.115,15.115,0,0,0,2.76.276V81.2ZM29.572,9.9a1.636,1.636,0,1,0,1.635,1.637A1.639,1.639,0,0,0,29.572,9.9Z" transform="translate(-5132.523 6268)" fill="#fff"/>
        <path id="Path_446" data-name="Path 446" d="M210.69,413.17h5.236v5.236H210.69Z" transform="translate(-5330.091 5917.047)" fill="#fff"/>
        <path id="Path_447" data-name="Path 447" d="M210.69,253.37h5.236v5.236H210.69Z" transform="translate(-5330.091 6051.324)" fill="#fff"/>
        <path id="Path_448" data-name="Path 448" d="M210.69,306.63h5.236v5.236H210.69Z" transform="translate(-5330.091 6006.57)" fill="#fff"/>
      </g>
    </g>
  </g>
</svg>
