<svg xmlns="http://www.w3.org/2000/svg" width="24" height="24" viewBox="0 0 24 24">
  <path id="overdue" d="M7.6,13.8A6.6,6.6,0,1,1,1,20.4,6.6,6.6,0,0,1,7.6,13.8Zm0,9.456a.749.749,0,1,0,.749.749A.749.749,0,0,0,7.6,23.256ZM21.1,3A3.9,3.9,0,0,1,25,6.9V20.7a3.9,3.9,0,0,1-3.9,3.9H14.173a7.763,7.763,0,0,0,.851-1.8H21.1a2.1,2.1,0,0,0,2.1-2.1V6.9a2.1,2.1,0,0,0-2.1-2.1H7.3A2.1,2.1,0,0,0,5.2,6.9v6.076a7.764,7.764,0,0,0-1.8.851V6.9A3.9,3.9,0,0,1,7.3,3ZM7.6,16.2a2.219,2.219,0,0,0-2.224,2.345.6.6,0,1,0,1.2-.012A1.023,1.023,0,0,1,7.6,17.4a1.061,1.061,0,0,1,1.024,1.139,1.175,1.175,0,0,1-.382.813l-.119.136-.318.348A2.381,2.381,0,0,0,7,21.6a.6.6,0,1,0,1.2,0,1.2,1.2,0,0,1,.389-.833l.121-.139.319-.349a2.354,2.354,0,0,0,.8-1.737A2.258,2.258,0,0,0,7.6,16.2Zm6.3-9.6a.9.9,0,0,1,.892.778L14.8,7.5v6.3h4.5a.9.9,0,0,1,.122,1.792L19.3,15.6H13.9a.9.9,0,0,1-.892-.778L13,14.7V7.5A.9.9,0,0,1,13.9,6.6Z" transform="translate(-1 -3)" fill="#68a5cd"/>
</svg>
