<svg xmlns="http://www.w3.org/2000/svg" width="40" height="41" viewBox="0 0 40 41">
  <g id="payment-postings" transform="translate(-0.4 0.401)">
    <g id="Icon.BG" transform="translate(0.4 -0.401)" fill="#fff" stroke="#a3a1fb" stroke-width="1">
      <ellipse cx="20" cy="20.5" rx="20" ry="20.5" stroke="none"/>
      <ellipse cx="20" cy="20.5" rx="19.5" ry="20" fill="none"/>
    </g>
    <g id="Group_266" data-name="Group 266" transform="translate(8.487 11.67)">
      <path id="Path_465" data-name="Path 465" d="M234.186,72.639c.086-.368.147-.744.264-1.1a5.1,5.1,0,1,1-.223,2.232.7.7,0,0,0-.041-.126Zm4.073,3.557,4.606-4.6-1.023-1.028-3.615,3.617-1.481-1.5-1,1Z" transform="translate(-234.186 -60.721)" fill="#a3a0fb"/>
      <path id="Path_466" data-name="Path 466" d="M306.817-76.91v-1.452h10.2v-7.3H298.053c0-.1-.011-.168-.011-.241q0-2.043,0-4.086a1.459,1.459,0,0,1,1.518-1.527q8.7,0,17.392,0a1.458,1.458,0,0,1,1.545,1.544q0,5.763,0,11.526a1.455,1.455,0,0,1-1.527,1.539q-4.987,0-9.974,0Zm-7.3-13.14v1.434h17.5V-90.05Z" transform="translate(-295.119 91.522)" fill="#a3a0fb"/>
      <path id="Path_467" data-name="Path 467" d="M525.271,68.737a2.192,2.192,0,0,1-1.777,3.806,2.154,2.154,0,0,1-1.391-.8,2.192,2.192,0,0,1,3.168-3.008Z" transform="translate(-508.472 -60.878)" fill="#a3a0fb"/>
    </g>
  </g>
</svg>
