<svg xmlns="http://www.w3.org/2000/svg" width="75.827" height="82.107" viewBox="0 0 75.827 82.107">
  <g id="Reffered" transform="translate(4887.523 -6264.691)">
    <path id="Subtraction_3" data-name="Subtraction 3" d="M14.306,28.618h-.024A14.31,14.31,0,0,1,4.193,4.187,14.227,14.227,0,0,1,14.312,0h.01A14.3,14.3,0,0,1,28.607,14.31a14.314,14.314,0,0,1-14.3,14.307h0Zm0-26.973a12.664,12.664,0,0,0-.025,25.328h.022a12.668,12.668,0,0,0,8.971-21.6A12.568,12.568,0,0,0,14.32,1.645Z" transform="translate(-4840.804 6265.191)" fill="#fff" stroke="rgba(0,0,0,0)" stroke-miterlimit="10" stroke-width="1"/>
    <g id="Group_305" data-name="Group 305" transform="translate(245 -2.4)">
      <path id="Path_435" data-name="Path 435" d="M263.96,413.17h24.214v5.236H263.96Z" transform="translate(-5374.853 5917.047)" fill="#fff"/>
      <path id="Path_436" data-name="Path 436" d="M263.96,306.63h24.214v5.236H263.96Z" transform="translate(-5374.853 6006.57)" fill="#fff"/>
      <path id="Path_437" data-name="Path 437" d="M263.96,359.91h24.214v5.236H263.96Z" transform="translate(-5374.853 5961.8)" fill="#fff"/>
      <path id="Path_439" data-name="Path 439" d="M263.96,200.1h24.214v5.236H263.96Z" transform="translate(-5374.853 6096.085)" fill="#fff"/>
      <path id="Path_440" data-name="Path 440" d="M263.96,253.37h24.214v5.236H263.96Z" transform="translate(-5374.853 6051.324)" fill="#fff"/>
      <path id="Path_441" data-name="Path 441" d="M210.69,359.91h5.236v5.236H210.69Z" transform="translate(-5330.091 5961.8)" fill="#fff"/>
      <path id="Path_443" data-name="Path 443" d="M210.69,200.1h5.236v5.236H210.69Z" transform="translate(-5330.091 6096.085)" fill="#fff"/>
      <path id="Subtraction_2" data-name="Subtraction 2" d="M58.9,81.2H0V11.823H23.027a6.959,6.959,0,0,1,.514-2.679,6.116,6.116,0,0,1,1.4-2.065,6.848,6.848,0,0,1,9.255,0,6.117,6.117,0,0,1,1.4,2.065,6.957,6.957,0,0,1,.514,2.679h8.361a15.055,15.055,0,0,0-.454,3.677,15.211,15.211,0,0,0,.119,1.9H2.8V78.889H56.142V30.223a15.115,15.115,0,0,0,2.76.276V81.2ZM29.572,9.9a1.636,1.636,0,1,0,1.635,1.637A1.639,1.639,0,0,0,29.572,9.9Z" transform="translate(-5132.523 6268)" fill="#fff"/>
      <path id="Path_446" data-name="Path 446" d="M210.69,413.17h5.236v5.236H210.69Z" transform="translate(-5330.091 5917.047)" fill="#fff"/>
      <path id="Path_447" data-name="Path 447" d="M210.69,253.37h5.236v5.236H210.69Z" transform="translate(-5330.091 6051.324)" fill="#fff"/>
      <path id="Path_448" data-name="Path 448" d="M210.69,306.63h5.236v5.236H210.69Z" transform="translate(-5330.091 6006.57)" fill="#fff"/>
    </g>
    <g id="Group_306" data-name="Group 306" transform="translate(-3321.09 6134.463)">
      <path id="Path_484" data-name="Path 484" d="M-1504.916,136.415a5.671,5.671,0,0,1,1.061.262,4.424,4.424,0,0,1,2.895,3.438,4.5,4.5,0,0,1-2.679,4.976,4.413,4.413,0,0,1-1.7.358,6.47,6.47,0,0,0-4.194,1.477,6.465,6.465,0,0,0-2.355,4.089,7.467,7.467,0,0,0-.072.848c-.006.124-.051.177-.185.173-.3-.01-.6-.009-.9,0-.136,0-.174-.046-.172-.177a7.455,7.455,0,0,1,.626-2.927,7.809,7.809,0,0,1,3.768-3.951c.258-.129.528-.231.816-.345-.135-.109-.257-.2-.369-.3a4.426,4.426,0,0,1-1.516-2.852,4.517,4.517,0,0,1,2.729-4.73,5.234,5.234,0,0,1,1.275-.339Zm-.5,7.772a3.269,3.269,0,0,0,3.277-3.25,3.261,3.261,0,0,0-3.266-3.281,3.233,3.233,0,0,0-3.27,3.262A3.243,3.243,0,0,0-1505.418,144.187Z" fill="#fff"/>
      <path id="Path_485" data-name="Path 485" d="M-1360.066,285.11q-.74.736-1.48,1.472c-.425.423-.85.845-1.27,1.273-.086.088-.143.1-.233,0-.217-.228-.44-.45-.668-.668-.086-.082-.089-.135,0-.221.388-.38.77-.767,1.154-1.151.039-.039.075-.08.114-.121-.045-.046-.094-.028-.136-.028a6.467,6.467,0,0,0-1.485.085,2.631,2.631,0,0,0-1.97,2.315c-.036.406-.016.812-.018,1.218,0,.141-.036.2-.188.195-.309-.01-.62,0-.929,0-.092,0-.146-.027-.146-.128a8.125,8.125,0,0,1,.169-2.161,3.939,3.939,0,0,1,3.169-2.732,11.934,11.934,0,0,1,1.383-.052.7.7,0,0,0,.074-.008c0-.062-.045-.082-.075-.112-.369-.371-.737-.743-1.111-1.109-.09-.088-.093-.144,0-.232q.337-.32.657-.657c.088-.093.142-.089.231,0q1.375,1.383,2.757,2.759Z" transform="translate(-137.533 -137.446)" fill="#fff"/>
    </g>
  </g>
</svg>
