<svg id="Layer_1" data-name="Layer 1" xmlns="http://www.w3.org/2000/svg" viewBox="0 0 126 140.6"><defs><style>.cls-1{fill:#92c755;}.cls-2{fill:#5981ac;}</style></defs><path class="cls-1" d="M76.89,137.06c-8.6-16-17-25.2-29.4-33.8,10.9,4.7,18.5,7.7,27.4,15.8,7.8-18,26.9-32.1,48.1-45.4C102,92.66,85,113.16,76.89,137.06Z"/><path class="cls-2" d="M67,126.66c-1,.1-2,.2-3,.2v-4.1c-.4-.6-.9-1.1-1.3-1.6a1.27,1.27,0,0,0-.6-.1,2,2,0,0,0-2,2V127a47.32,47.32,0,0,1-9.1-1.2l1-3.9a2,2,0,1,0-3.8-1.2v.1l-1,3.9a48,48,0,0,1-8.4-3.5l2-3.4a2,2,0,1,0-3.5-2.1l-2,3.4a48.81,48.81,0,0,1-7.3-5.6l2.8-2.8a2.15,2.15,0,0,0,0-2.9,2.13,2.13,0,0,0-2.8,0l-2.8,2.8a50.42,50.42,0,0,1-5.6-7.3l3.4-2a2,2,0,1,0-2.1-3.5l-3.4,2a55.3,55.3,0,0,1-3.5-8.4l3.9-1.1a2,2,0,1,0-1-3.8h-.1l-3.9,1.1a55.42,55.42,0,0,1-1.3-9.1h3.9a2,2,0,0,0,0-4h-3.9a47.32,47.32,0,0,1,1.2-9.1l3.9,1.1a1.09,1.09,0,0,1,.5-.1,2,2,0,0,0,2-2,2.13,2.13,0,0,0-1.5-2l-3.9-1.1a48,48,0,0,1,3.5-8.4l3.4,2a2,2,0,1,0,2.1-3.5l-3.4-2a48.81,48.81,0,0,1,5.6-7.3l2.8,2.8a2.15,2.15,0,0,0,2.9,0,2.13,2.13,0,0,0,0-2.8l-2.8-2.8a50.42,50.42,0,0,1,7.3-5.6l2,3.4a2,2,0,1,0,3.5-2.1l-2-3.4a55.3,55.3,0,0,1,8.4-3.5l1.1,3.9a2.13,2.13,0,0,0,2,1.5.75.75,0,0,0,.5-.1,2,2,0,0,0,1.4-2.5l-1-3.9a55.29,55.29,0,0,1,9.1-1.2v3.9a2,2,0,0,0,4,0v-3.9a47.32,47.32,0,0,1,9.1,1.2l-1,3.9a2.08,2.08,0,0,0,1.4,2.5,1.09,1.09,0,0,0,.5.1,2.13,2.13,0,0,0,2-1.5l1.1-3.9a48,48,0,0,1,8.4,3.5l-2,3.4a2,2,0,0,0,3.5,2.1l2-3.4a48.81,48.81,0,0,1,7.3,5.6l-3,3a2.05,2.05,0,0,0,2.9,2.9l2.8-2.8a50.42,50.42,0,0,1,5.6,7.3l-3.4,2a2,2,0,0,0,2.1,3.5l3.4-2a55.3,55.3,0,0,1,3.5,8.4l-3.9,1.1a1.94,1.94,0,0,0-1.4,2.4,2.13,2.13,0,0,0,2,1.5.75.75,0,0,0,.5-.1l3.9-1.1a55.29,55.29,0,0,1,1.2,9.1h-3.9a2,2,0,0,0,0,4h3.9v.8c1.3-1,2.7-2,4-3a54.48,54.48,0,0,0-1.8-13.8,53.24,53.24,0,0,0-5.4-13v-.1l-.1-.1a62.53,62.53,0,0,0-7.2-9.7l4.3-4.3,2.9,2.9,8.5-8.5-8.5-8.5-8.5,8.5,2.9,2.9-4.3,4.3a51.9,51.9,0,0,0-9.7-7.2l-.3-.1h-.1a57.47,57.47,0,0,0-13-5.4,53.73,53.73,0,0,0-8-1.5v-2.8h3a5,5,0,0,0,0-10H53.09a5,5,0,0,0,0,10h3v2.6a53.73,53.73,0,0,0-8,1.5,54.92,54.92,0,0,0-13,5.4H35l-.1.1a62.53,62.53,0,0,0-9.7,7.2l-4.3-4.3,2.9-2.9L15.29,21l-8.8,8.5L15,38l2.9-2.9,4.3,4.3a51.9,51.9,0,0,0-7.2,9.7l-.1.1v.1a57.47,57.47,0,0,0-5.4,13,54,54,0,0,0,0,28.2,54.92,54.92,0,0,0,5.4,13v.1c0,.1.1.1.1.2a56.22,56.22,0,0,0,8.4,11,.1.1,0,0,0,.1.1.1.1,0,0,1,.1.1,56.71,56.71,0,0,0,11,8.5l.1.1c.1,0,.1.1.2.1a58.65,58.65,0,0,0,12.9,5.4,53.06,53.06,0,0,0,21.7,1.3C68.69,129.06,67.89,127.86,67,126.66Z"/><path class="cls-2" d="M108.39,91.06l1.8.5a48,48,0,0,1-3.5,8.4l-3.4-2c-.1,0-.2-.1-.3-.1a37.12,37.12,0,0,0-2.3,3.2c.1.2.3.3.5.5l3.4,2a48.81,48.81,0,0,1-5.6,7.3l-2.8-2.8c-.1-.1-.2-.2-.3-.2-.7,1.1-1.5,2.3-2.2,3.4l2.4,2.4a52.21,52.21,0,0,1-7,5.4c-1.2,2.1-2.3,4.2-3.4,6.4,1.1-.5,2.1-1.1,3.2-1.7.1,0,.1-.1.2-.1l.1-.1a53.06,53.06,0,0,0,11-8.5.1.1,0,0,0,.1-.1l.1-.1a56.22,56.22,0,0,0,8.4-11c0-.1.1-.1.1-.2v-.1a57.47,57.47,0,0,0,5.4-13,42,42,0,0,0,1.8-8.4C113.49,85,110.89,88,108.39,91.06Z"/></svg>