<?xml version="1.0" encoding="utf-8"?>
<!-- Generator: Adobe Illustrator 24.0.2, SVG Export Plug-In . SVG Version: 6.00 Build 0)  -->
<svg version="1.1" id="Layer_1" xmlns="http://www.w3.org/2000/svg" xmlns:xlink="http://www.w3.org/1999/xlink" x="0px" y="0px"
	 viewBox="0 0 126 140.6" style="enable-background:new 0 0 126 140.6;" xml:space="preserve">
<style type="text/css">
	.st0{fill:#628881;}
</style>
<path id="response-time" class="st0" d="M121.6,61.5C121.6,61.5,121.6,61.5,121.6,61.5C121.6,61.5,121.6,61.5,121.6,61.5
	c-1.4-5.1-3.4-10-6-14.5c0,0,0-0.1,0-0.1c0,0-0.1-0.1-0.1-0.1c-2.3-3.9-5-7.5-8-10.8l4.8-4.8l3.2,3.2l9.5-9.5l-9.5-9.5l-9.5,9.5
	l3.2,3.2l-4.8,4.8c-3.3-3.1-6.9-5.8-10.8-8c0,0-0.1-0.1-0.1-0.1c0,0-0.1,0-0.1,0c-4.5-2.6-9.4-4.6-14.5-6c0,0,0,0,0,0c0,0,0,0,0,0
	c-2.9-0.8-5.9-1.3-8.9-1.7V14h3.4c3.1,0,5.6-2.5,5.6-5.6c0-3.1-2.5-5.6-5.6-5.6H52.9c-3.1,0-5.6,2.5-5.6,5.6c0,3.1,2.5,5.6,5.6,5.6
	c0,0,0,0,0,0h3.4v2.9c-3,0.3-6,0.9-8.9,1.7c0,0,0,0,0,0c0,0,0,0,0,0c-5.1,1.4-9.9,3.4-14.5,6c0,0-0.1,0-0.1,0c0,0-0.1,0.1-0.1,0.1
	c-3.9,2.3-7.5,5-10.8,8l-4.8-4.8l3.2-3.2l-9.5-9.5L1,24.7l9.5,9.5l3.2-3.2l4.8,4.8c-3.1,3.3-5.8,6.9-8,10.8c0,0-0.1,0.1-0.1,0.1
	c0,0,0,0.1,0,0.1c-2.6,4.5-4.6,9.4-6,14.5c0,0,0,0,0,0c0,0,0,0,0,0c-2.8,10.3-2.8,21.1,0,31.4c0,0,0,0,0,0s0,0,0,0
	c1.4,5.1,3.4,9.9,6,14.5c0,0,0,0.1,0,0.1c0,0.1,0.1,0.1,0.1,0.2c2.6,4.5,5.8,8.6,9.4,12.3c0,0,0,0.1,0.1,0.1s0.1,0.1,0.1,0.1
	c3.7,3.7,7.8,6.8,12.3,9.5c0,0,0.1,0.1,0.1,0.1c0.1,0,0.1,0.1,0.2,0.1c4.5,2.6,9.4,4.6,14.4,6c0,0,0,0,0,0h0
	c10.3,2.8,21.1,2.8,31.4,0c0,0,0,0,0,0c0,0,0,0,0,0c5-1.4,9.9-3.4,14.4-6c0.1,0,0.1-0.1,0.2-0.1c0,0,0.1-0.1,0.1-0.1
	c4.5-2.6,8.6-5.8,12.3-9.5c0,0,0.1,0,0.1-0.1c0,0,0.1-0.1,0.1-0.1c3.6-3.7,6.8-7.8,9.4-12.3c0-0.1,0.1-0.1,0.1-0.2c0,0,0-0.1,0-0.1
	c2.6-4.5,4.6-9.4,6-14.5c0,0,0,0,0,0c0,0,0,0,0,0C124.4,82.6,124.4,71.8,121.6,61.5L121.6,61.5z M112.3,92.7l4.3,1.2
	c-1,3.3-2.3,6.4-3.9,9.4l-3.8-2.2c-1.1-0.6-2.5-0.3-3.1,0.8c-0.6,1.1-0.3,2.5,0.8,3.1l0,0l3.8,2.2c-1.8,2.9-3.9,5.6-6.2,8.1
	l-3.1-3.1c-0.9-0.9-2.3-0.8-3.2,0c-0.8,0.9-0.8,2.3,0,3.1l3.1,3.1c-2.5,2.3-5.2,4.4-8.1,6.2l-2.2-3.8c-0.6-1.1-2-1.4-3.1-0.8
	c-1.1,0.6-1.4,2-0.8,3.1l0,0l2.2,3.8c-3,1.6-6.2,2.9-9.4,3.9l-1.2-4.3c-0.3-1.2-1.5-1.9-2.7-1.6c-1.2,0.3-1.9,1.5-1.6,2.7
	c0,0,0,0,0,0.1l1.1,4.3c-3.3,0.7-6.7,1.2-10.1,1.3v-4.4c0-1.2-1-2.2-2.2-2.2c-1.2,0-2.2,1-2.2,2.2v4.4c-3.4-0.1-6.8-0.6-10.1-1.3
	l1.1-4.3c0.3-1.2-0.3-2.4-1.5-2.8c-1.2-0.3-2.4,0.3-2.8,1.5c0,0,0,0,0,0.1l-1.1,4.3c-3.3-1-6.4-2.3-9.4-3.9l2.2-3.8
	c0.6-1.1,0.3-2.5-0.8-3.1c-1.1-0.6-2.5-0.3-3.1,0.8l0,0l-2.2,3.8c-2.9-1.8-5.6-3.9-8.1-6.2l3.1-3.1c0.9-0.9,0.8-2.3,0-3.2
	c-0.9-0.8-2.3-0.8-3.1,0l-3.1,3.1c-2.3-2.5-4.4-5.2-6.2-8.1l3.8-2.2c1.1-0.6,1.4-2,0.8-3.1c-0.6-1.1-2-1.4-3.1-0.8l-3.8,2.2
	c-1.6-3-2.9-6.2-3.9-9.4l4.3-1.2c1.2-0.3,1.9-1.5,1.6-2.7c-0.3-1.2-1.5-1.9-2.7-1.6c0,0,0,0-0.1,0l-4.3,1.2
	C7.4,86.2,7,82.8,6.8,79.4h4.4c1.2,0,2.2-1,2.2-2.2c0-1.2-1-2.2-2.2-2.2H6.8c0.1-3.4,0.6-6.8,1.3-10.1l4.3,1.2
	C12.6,66,12.8,66,13,66c1.2,0,2.2-1,2.2-2.2c0-1-0.7-1.9-1.7-2.2l-4.3-1.2c1-3.3,2.3-6.4,3.9-9.4l3.8,2.2c1.1,0.6,2.5,0.3,3.1-0.8
	c0.6-1.1,0.3-2.5-0.8-3.1l-3.8-2.2c1.8-2.9,3.9-5.6,6.2-8.1l3.1,3.1c0.9,0.9,2.3,0.8,3.2,0c0.8-0.9,0.8-2.3,0-3.1l-3.1-3.1
	c2.5-2.3,5.2-4.4,8.1-6.2l2.2,3.8c0.6,1.1,2,1.4,3.1,0.8c1.1-0.6,1.4-2,0.8-3.1l-2.2-3.8c3-1.6,6.2-2.9,9.4-3.9l1.2,4.3
	c0.3,1,1.2,1.7,2.2,1.7c0.2,0,0.4,0,0.6-0.1c1.2-0.3,1.9-1.6,1.6-2.8l-1.1-4.3c3.3-0.7,6.7-1.2,10.1-1.3v4.4c0,1.2,1,2.2,2.2,2.2
	s2.2-1,2.2-2.2l0,0V21c3.4,0.1,6.8,0.6,10.1,1.3l-1.1,4.3c-0.3,1.2,0.4,2.4,1.6,2.8c0.2,0.1,0.4,0.1,0.6,0.1c1,0,1.9-0.7,2.2-1.7
	l1.2-4.3c3.3,1,6.4,2.3,9.4,3.9l-2.2,3.8c-0.6,1.1-0.3,2.5,0.8,3.1s2.5,0.3,3.1-0.8l0,0l2.2-3.8c2.9,1.8,5.6,3.9,8.1,6.2L98,39
	c-0.9,0.9-0.9,2.3,0,3.2c0.9,0.9,2.3,0.9,3.2,0c0,0,0,0,0,0l3.1-3.1c2.3,2.5,4.4,5.2,6.2,8.1l-3.8,2.2c-1.1,0.6-1.4,2-0.8,3.1
	c0.6,1.1,2,1.4,3.1,0.8l0,0l3.8-2.2c1.6,3,2.9,6.2,3.9,9.4l-4.3,1.2c-1.2,0.3-1.9,1.6-1.6,2.7c0.3,1,1.2,1.7,2.2,1.7
	c0.2,0,0.4,0,0.6-0.1l4.3-1.2c0.7,3.3,1.2,6.7,1.3,10.1h-4.4c-1.2,0-2.2,1-2.2,2.2s1,2.2,2.2,2.2h4.4c-0.1,3.4-0.6,6.8-1.3,10.1
	l-4.3-1.1c-1.2-0.3-2.4,0.4-2.8,1.5C110.4,91.1,111.1,92.4,112.3,92.7C112.3,92.7,112.3,92.7,112.3,92.7L112.3,92.7z"/>
</svg>
